<svg width="42" height="206" viewBox="0 0 42 206" fill="none" xmlns="http://www.w3.org/2000/svg">
<circle cx="21" cy="21" r="21" fill="#F2F2F7"/>
<path d="M12 12H30C30.2652 12 30.5196 12.1054 30.7071 12.2929C30.8946 12.4804 31 12.7348 31 13V29C31 29.2652 30.8946 29.5196 30.7071 29.7071C30.5196 29.8946 30.2652 30 30 30H12C11.7348 30 11.4804 29.8946 11.2929 29.7071C11.1054 29.5196 11 29.2652 11 29V13C11 12.7348 11.1054 12.4804 11.2929 12.2929C11.4804 12.1054 11.7348 12 12 12ZM29 20H13V28H29V20ZM29 18V14H13V18H29ZM23 24H27V26H23V24Z" fill="#4B4B60"/>
<path d="M21 46L21 78" stroke="#B4B4CF" stroke-dasharray="3 3"/>
<circle cx="21" cy="103" r="21" fill="#F2F2F7"/>
<path d="M17.965 108C17.8461 108.834 17.4302 109.598 16.7937 110.15C16.1571 110.702 15.3427 111.006 14.5 111.006C13.6573 111.006 12.8429 110.702 12.2063 110.15C11.5698 109.598 11.1539 108.834 11.035 108H10V96C10 95.7348 10.1054 95.4804 10.2929 95.2929C10.4804 95.1054 10.7348 95 11 95H25C25.2652 95 25.5196 95.1054 25.7071 95.2929C25.8946 95.4804 26 95.7348 26 96V98H29L32 102.056V108H29.965C29.8461 108.834 29.4302 109.598 28.7937 110.15C28.1571 110.702 27.3427 111.006 26.5 111.006C25.6573 111.006 24.8429 110.702 24.2063 110.15C23.5698 109.598 23.1539 108.834 23.035 108H17.965ZM24 97H12V105.05C12.3946 104.647 12.8806 104.346 13.4168 104.171C13.9529 103.997 14.5233 103.954 15.0794 104.047C15.6355 104.141 16.1608 104.367 16.6106 104.707C17.0604 105.047 17.4215 105.49 17.663 106H23.337C23.505 105.647 23.73 105.326 24 105.05V97ZM26 103H30V102.715L27.992 100H26V103ZM26.5 109C26.898 109 27.2796 108.842 27.561 108.561C27.8424 108.279 28.0005 107.897 28.0005 107.5C28.0005 107.102 27.8424 106.72 27.561 106.438C27.2796 106.157 26.898 105.999 26.5 105.999C26.102 105.999 25.7204 106.157 25.439 106.438C25.1576 106.72 24.9995 107.102 24.9995 107.5C24.9995 107.897 25.1576 108.279 25.439 108.561C25.7204 108.842 26.102 109 26.5 109ZM16 107.5C16 107.303 15.9612 107.108 15.8858 106.926C15.8104 106.744 15.6999 106.579 15.5607 106.439C15.4214 106.3 15.256 106.19 15.074 106.114C14.892 106.039 14.697 106 14.5 106C14.303 106 14.108 106.039 13.926 106.114C13.744 106.19 13.5786 106.3 13.4393 106.439C13.3001 106.579 13.1896 106.744 13.1142 106.926C13.0388 107.108 13 107.303 13 107.5C13 107.898 13.158 108.279 13.4393 108.561C13.7206 108.842 14.1022 109 14.5 109C14.8978 109 15.2794 108.842 15.5607 108.561C15.842 108.279 16 107.898 16 107.5Z" fill="#4B4B60"/>
<path d="M21 128L21 160" stroke="#B4B4CF" stroke-dasharray="2 2"/>
<circle cx="21" cy="185" r="21" fill="#F2F2F7"/>
<path d="M30 180H31V190H30V193C30 193.265 29.8946 193.52 29.7071 193.707C29.5196 193.895 29.2652 194 29 194H11C10.7348 194 10.4804 193.895 10.2929 193.707C10.1054 193.52 10 193.265 10 193V177C10 176.735 10.1054 176.48 10.2929 176.293C10.4804 176.105 10.7348 176 11 176H29C29.2652 176 29.5196 176.105 29.7071 176.293C29.8946 176.48 30 176.735 30 177V180ZM28 190H22C20.6739 190 19.4021 189.473 18.4645 188.536C17.5268 187.598 17 186.326 17 185C17 183.674 17.5268 182.402 18.4645 181.464C19.4021 180.527 20.6739 180 22 180H28V178H12V192H28V190ZM29 188V182H22C21.2044 182 20.4413 182.316 19.8787 182.879C19.3161 183.441 19 184.204 19 185C19 185.796 19.3161 186.559 19.8787 187.121C20.4413 187.684 21.2044 188 22 188H29ZM22 184H25V186H22V184Z" fill="#4B4B60"/>
</svg>
